# xmcd
# Track frame offsets:
# 150
# 12115
# 25470
# 38157
# 49485
# 60500
# 73205
# 84605
# 96342
# 108700
# 119635
# 131135
# 142107
# 152985
# 162102
# 173267
# 183917
# 193457
# 205782
# 218592
#
# Disc length: 3051 seconds
# Revision: 0
# Processed by: cddbd v1.4PL0 Copyright (c) Steve Scherf et al.
# Submitted via: VisiTrax 2.9.2.167 - For more info visit www.synapsa.com
#
DISCID=2c0be914
DTITLE=Reeves, Jim - The singles 1953 to 1960 CD1
DYEAR=1900
DGENRE=
TTITLE0=Mexican Joe
TTITLE1=I could cry
TTITLE2=Bimbo
TTITLE3=Gypsy heart
TTITLE4=Then I'll stop loving you
TTITLE5=Echo Bonita
TTITLE6=Penny Candy
TTITLE7=I'll follow you
TTITLE8=Drinking tequila
TTITLE9=Red eyed and rowdy
TTITLE10=Yonder comes a sucker
TTITLE11=I'm hurtin' inside
TTITLE12=My lips are sealed
TTITLE13=Pickin' a chicken
TTITLE14=According to my heart
TTITLE15=Mother of a honky tonk girl
TTITLE16=Waiting for a train
TTITLE17=Am I losing you
TTITLE18=Four walls
TTITLE19=Look behind you
EXTD=
EXTT0=
EXTT1=
EXTT2=
EXTT3=
EXTT4=
EXTT5=
EXTT6=
EXTT7=
EXTT8=
EXTT9=
EXTT10=
EXTT11=
EXTT12=
EXTT13=
EXTT14=
EXTT15=
EXTT16=
EXTT17=
EXTT18=
EXTT19=
PLAYORDER=
